<?xml version="1.0" standalone="no"?>
<!DOCTYPE svg PUBLIC "-//W3C//DTD SVG 20010904//EN"
 "http://www.w3.org/TR/2001/REC-SVG-20010904/DTD/svg10.dtd">
<svg version="1.0" xmlns="http://www.w3.org/2000/svg"
 width="700.000000pt" height="700.000000pt" viewBox="0 0 700.000000 700.000000"
 preserveAspectRatio="xMidYMid meet">
<metadata>
Created by potrace 1.11, written by Peter Selinger 2001-2013
</metadata>
<g transform="translate(0.000000,700.000000) scale(0.100000,-0.100000)"
fill="#000000" stroke="none">
<path d="M2629 6708 c-4 -9 -3 -578 1 -579 13 -3 1726 -5 1735 -2 7 2 10 102
9 286 -1 155 -2 285 -3 290 -1 6 -1739 11 -1742 5z"/>
<path d="M3459 5836 c-2 -2 -56 -6 -119 -9 -113 -5 -301 -29 -370 -47 -19 -5
-49 -11 -65 -14 -52 -9 -250 -68 -260 -77 -5 -5 -17 -9 -26 -9 -34 0 -293
-119 -429 -197 -422 -244 -774 -606 -1004 -1036 -115 -215 -217 -494 -255
-697 -6 -30 -12 -65 -15 -77 -2 -11 -7 -43 -11 -70 -4 -26 -8 -59 -10 -72 -10
-58 -19 -226 -19 -331 0 -216 22 -392 79 -640 46 -202 183 -523 307 -724 44
-72 163 -243 177 -256 4 -3 30 -34 60 -70 29 -36 107 -117 172 -181 427 -420
982 -677 1589 -735 94 -9 375 -11 445 -3 33 4 87 9 120 13 66 6 107 13 195 32
14 3 36 7 50 10 243 49 574 183 810 329 232 144 500 380 664 585 488 612 681
1397 530 2160 -76 383 -249 767 -485 1075 l-38 50 206 207 207 207 -20 23
c-10 12 -32 38 -49 57 -46 54 -225 231 -285 283 l-55 48 -207 -207 -207 -207
-28 22 c-89 70 -328 220 -439 275 -232 116 -526 212 -754 246 -166 25 -193 28
-316 30 -71 1 -131 4 -135 6 -3 3 -8 3 -10 1z m291 -600 c402 -56 746 -204
1055 -456 58 -47 251 -246 296 -305 95 -125 135 -187 221 -345 93 -170 184
-473 206 -685 9 -93 9 -404 -1 -483 -35 -279 -133 -567 -275 -802 -208 -344
-520 -627 -882 -798 -140 -66 -348 -135 -475 -157 -16 -2 -39 -7 -50 -9 -12
-2 -48 -7 -80 -11 -33 -4 -73 -9 -90 -11 -47 -6 -304 -5 -365 1 -56 6 -204 30
-250 40 -14 4 -38 8 -53 11 -36 7 -232 70 -272 89 -211 95 -331 163 -459 260
-348 265 -601 623 -727 1033 -16 52 -32 109 -35 126 -2 17 -7 38 -9 46 -8 27
-20 97 -34 200 -17 117 -6 440 19 580 85 477 326 896 695 1210 296 251 701
426 1075 465 36 4 67 9 69 11 6 5 370 -3 421 -10z"/>
<path d="M3210 3792 l0 -877 278 2 c152 0 283 2 290 2 9 1 12 183 12 875 l0
874 -290 0 -290 1 0 -877z"/>
</g>
</svg>
